<?xml version="1.0" encoding="utf-8" standalone="no"?>
<!DOCTYPE svg PUBLIC "-//W3C//DTDSVG1.1//EN" "http://www.w3.org/Graphics/SVG/1.1/DTD/svg11.dtd">
<svg width="100%" height="100%" viewBox="0 0 1024 1024" version="1.1" xmlns="http://www.w3.org/2000/svg" xmlns:xlink="http://www.w3.org/1999/xlink" xml:space="preserve" xmlns:serif="http://www.serif.com/" style="fill-rule:evenodd;clip-rule:evenodd;stroke-linejoin:round;stroke-miterlimit:2;">
  <g id="qa---staging" serif:id="qa / staging">
    <g id="bg" transform="matrix(1125.27,0,0,1052.55,-50.6506,911.971)">
      <path d="M0.2,-0.837C0.131,-0.837 0.075,-0.781 0.075,-0.712L0.075,-0.049C0.075,0.019 0.131,0.076 0.2,0.076L0.8,0.076C0.869,0.076 0.925,0.019 0.925,-0.049L0.925,-0.712C0.925,-0.781 0.869,-0.837 0.8,-0.837L0.2,-0.837Z" style="fill:rgb(248,243,235);fill-rule:nonzero;"/>
    </g>
    <g id="frame" transform="matrix(1125.27,0,0,1052.55,-50.6506,911.971)">
      <path d="M0.2,0.106C0.115,0.106 0.045,0.036 0.045,-0.049L0.045,-0.712C0.045,-0.798 0.115,-0.867 0.2,-0.867L0.8,-0.867C0.885,-0.867 0.955,-0.798 0.955,-0.712L0.955,-0.049C0.955,0.036 0.885,0.106 0.8,0.106L0.2,0.106ZM0.2,-0.837C0.131,-0.837 0.075,-0.781 0.075,-0.712L0.075,-0.049C0.075,0.019 0.131,0.076 0.2,0.076L0.8,0.076C0.869,0.076 0.925,0.019 0.925,-0.049L0.925,-0.712C0.925,-0.781 0.869,-0.837 0.8,-0.837L0.2,-0.837Z" style="fill:rgb(249,144,6);fill-rule:nonzero;"/>
    </g>
    <g id="Q" transform="matrix(1125.27,0,0,1052.55,-50.6506,911.971)">
      <path d="M0.689,-0.137C0.643,-0.088 0.579,-0.06 0.504,-0.06C0.345,-0.06 0.235,-0.183 0.235,-0.383C0.235,-0.582 0.345,-0.701 0.504,-0.701C0.663,-0.701 0.774,-0.582 0.774,-0.383C0.774,-0.314 0.76,-0.255 0.737,-0.206L0.847,-0.134L0.801,-0.064L0.689,-0.137ZM0.504,-0.145C0.546,-0.145 0.582,-0.161 0.61,-0.189L0.484,-0.272L0.53,-0.342L0.654,-0.26C0.667,-0.295 0.674,-0.336 0.674,-0.383C0.674,-0.528 0.606,-0.616 0.504,-0.616C0.402,-0.616 0.335,-0.528 0.335,-0.383C0.335,-0.237 0.402,-0.145 0.504,-0.145Z" style="fill:rgb(249,146,11);fill-rule:nonzero;"/>
    </g>
  </g>
</svg>
