<?xml version="1.0" encoding="utf-8" standalone="no"?>
<!DOCTYPE svg PUBLIC "-//W3C//DTDSVG1.1//EN" "http://www.w3.org/Graphics/SVG/1.1/DTD/svg11.dtd">
<svg width="100%" height="100%" viewBox="0 0 1024 1024" version="1.1" xmlns="http://www.w3.org/2000/svg" xmlns:xlink="http://www.w3.org/1999/xlink" xml:space="preserve" xmlns:serif="http://www.serif.com/" style="fill-rule:evenodd;clip-rule:evenodd;stroke-linejoin:round;stroke-miterlimit:2;">
  <style>
    path {
      fill-rule: nonzero;
    }

    #bg path {
      fill: hsl(0,50%,95%);
    }
    #fg path, #fg rect {
      fill: hsl(0,70%,50%);
    }
    @media (prefers-color-scheme: dark) {
      #bg path {
        fill: hsl(0,70%,50%);
      }
      #fg path, #fg rect {
        fill: hsl(0,50%,95%);
      }
    }
  </style>
  <g id="demo">
    <g id="bg" transform="matrix(1125.27,0,0,1052.55,-50.6506,911.971)">
      <path d="M0.2,-0.837C0.131,-0.837 0.075,-0.781 0.075,-0.712L0.075,-0.049C0.075,0.019 0.131,0.076 0.2,0.076L0.8,0.076C0.869,0.076 0.925,0.019 0.925,-0.049L0.925,-0.712C0.925,-0.781 0.869,-0.837 0.8,-0.837L0.2,-0.837Z"/>
    </g>
    <g id="fg">
      <g id="frame" transform="matrix(1125.27,0,0,1052.55,-50.6506,911.971)">
        <path d="M0.2,0.106C0.115,0.106 0.045,0.036 0.045,-0.049L0.045,-0.712C0.045,-0.798 0.115,-0.867 0.2,-0.867L0.8,-0.867C0.885,-0.867 0.955,-0.798 0.955,-0.712L0.955,-0.049C0.955,0.036 0.885,0.106 0.8,0.106L0.2,0.106ZM0.2,-0.837C0.131,-0.837 0.075,-0.781 0.075,-0.712L0.075,-0.049C0.075,0.019 0.131,0.076 0.2,0.076L0.8,0.076C0.869,0.076 0.925,0.019 0.925,-0.049L0.925,-0.712C0.925,-0.781 0.869,-0.837 0.8,-0.837L0.2,-0.837Z"/>
      </g>
      <g id="D" transform="matrix(1125.27,0,0,1052.55,-50.6506,911.971)">
        <path d="M0.288,-0.072L0.288,-0.69L0.448,-0.69C0.638,-0.69 0.747,-0.585 0.747,-0.383C0.747,-0.183 0.638,-0.072 0.453,-0.072L0.288,-0.072ZM0.385,-0.152L0.442,-0.152C0.574,-0.152 0.646,-0.23 0.646,-0.383C0.646,-0.538 0.574,-0.611 0.442,-0.611L0.385,-0.611L0.385,-0.152Z"/>
      </g>
    </g>
  </g>
</svg>
