<?xml version="1.0" encoding="utf-8" standalone="no"?>
<!DOCTYPE svg PUBLIC "-//W3C//DTDSVG1.1//EN" "http://www.w3.org/Graphics/SVG/1.1/DTD/svg11.dtd">
<svg width="100%" height="100%" viewBox="0 0 1024 1024" version="1.1" xmlns="http://www.w3.org/2000/svg" xmlns:xlink="http://www.w3.org/1999/xlink" xml:space="preserve" xmlns:serif="http://www.serif.com/" style="fill-rule:evenodd;clip-rule:evenodd;stroke-linejoin:round;stroke-miterlimit:2;">
  <g id="qa---staging" serif:id="qa / staging">
    <g id="bg" transform="matrix(1125.27,0,0,1052.55,-50.6506,911.971)">
      <path d="M0.2,-0.837C0.131,-0.837 0.075,-0.781 0.075,-0.712L0.075,-0.049C0.075,0.019 0.131,0.076 0.2,0.076L0.8,0.076C0.869,0.076 0.925,0.019 0.925,-0.049L0.925,-0.712C0.925,-0.781 0.869,-0.837 0.8,-0.837L0.2,-0.837Z" style="fill:rgb(248,243,235);fill-rule:nonzero;"/>
    </g>
    <g id="frame" transform="matrix(1125.27,0,0,1052.55,-50.6506,911.971)">
      <path d="M0.2,0.106C0.115,0.106 0.045,0.036 0.045,-0.049L0.045,-0.712C0.045,-0.798 0.115,-0.867 0.2,-0.867L0.8,-0.867C0.885,-0.867 0.955,-0.798 0.955,-0.712L0.955,-0.049C0.955,0.036 0.885,0.106 0.8,0.106L0.2,0.106ZM0.2,-0.837C0.131,-0.837 0.075,-0.781 0.075,-0.712L0.075,-0.049C0.075,0.019 0.131,0.076 0.2,0.076L0.8,0.076C0.869,0.076 0.925,0.019 0.925,-0.049L0.925,-0.712C0.925,-0.781 0.869,-0.837 0.8,-0.837L0.2,-0.837Z" style="fill:rgb(249,144,6);fill-rule:nonzero;"/>
    </g>
    <g id="S" transform="matrix(1125.27,0,0,1052.55,-50.6506,911.971)">
      <path d="M0.34,-0.218C0.384,-0.173 0.445,-0.145 0.504,-0.145C0.579,-0.145 0.621,-0.18 0.621,-0.232C0.621,-0.288 0.579,-0.306 0.522,-0.331L0.436,-0.368C0.377,-0.393 0.31,-0.44 0.31,-0.53C0.31,-0.628 0.396,-0.701 0.513,-0.701C0.586,-0.701 0.654,-0.671 0.701,-0.623L0.65,-0.561C0.611,-0.595 0.568,-0.616 0.513,-0.616C0.45,-0.616 0.409,-0.586 0.409,-0.536C0.409,-0.483 0.459,-0.463 0.509,-0.443L0.594,-0.407C0.667,-0.376 0.72,-0.33 0.72,-0.24C0.72,-0.141 0.638,-0.06 0.503,-0.06C0.418,-0.06 0.339,-0.094 0.282,-0.151L0.34,-0.218Z" style="fill:rgb(249,146,11);fill-rule:nonzero;"/>
    </g>
  </g>
</svg>
